<svg version="1.1" xmlns="http://www.w3.org/2000/svg" xmlns:xlink="http://www.w3.org/1999/xlink" width="30px" height="30px" viewBox="0,0,256,256"><g fill="#393655" fill-rule="nonzero" stroke="none" stroke-width="1" stroke-linecap="butt" stroke-linejoin="miter" stroke-miterlimit="10" stroke-dasharray="" stroke-dashoffset="0" font-family="none" font-weight="none" font-size="none" text-anchor="none" style="mix-blend-mode: normal"><g transform="scale(8.53333,8.53333)"><path d="M20.29883,3.01758c-1.47332,0 -2.94518,0.58369 -4.04883,1.74805l-8.00781,8.44727c-2.99413,3.15965 -2.99413,8.23879 0,11.39844c0.0923,0.09727 0.20323,0.17498 0.32617,0.22852c0.00195,0.00066 0.0039,0.00131 0.00586,0.00195c3.01664,2.85863 7.72213,2.82669 10.61914,-0.23047l5.63281,-5.94336c0.25964,-0.25668 0.35879,-0.63445 0.25864,-0.98554c-0.10014,-0.3511 -0.38365,-0.61973 -0.73963,-0.70081c-0.35598,-0.08108 -0.72786,0.03826 -0.97018,0.31135l-5.63281,5.94336c-2.25178,2.37626 -5.7951,2.37626 -8.04688,0c-2.25187,-2.37635 -2.25187,-6.27208 0,-8.64844l8.00586,-8.44727c1.46472,-1.54529 3.73255,-1.54529 5.19727,0c1.46457,1.54514 1.46457,4.09549 0,5.64063l-7.28711,7.68945c-0.6789,0.71576 -1.6699,0.71523 -2.34766,0c-0.67776,-0.71524 -0.67776,-1.91953 0,-2.63477l5.86133,-6.18555c0.25964,-0.25668 0.35878,-0.63445 0.25864,-0.98554c-0.10014,-0.3511 -0.38365,-0.61972 -0.73963,-0.70081c-0.35598,-0.08108 -0.72786,0.03826 -0.97018,0.31135l-5.86328,6.18555c-1.42024,1.49876 -1.42024,3.886 0,5.38477c0.0948,0.09976 0.20916,0.17889 0.33594,0.23242c1.44064,1.20351 3.59272,1.16271 4.91602,-0.23242l7.28711,-7.68945c2.11636,-2.23278 2.1468,-5.72704 0.20508,-8.06641c-0.0468,-0.12029 -0.11644,-0.23039 -0.20508,-0.32422c-1.10364,-1.16435 -2.57746,-1.74805 -4.05078,-1.74805z"></path></g></g></svg>